<svg t="1782810751418" class="icon" viewBox="0 0 1024 1024" version="1.1" xmlns="http://www.w3.org/2000/svg" p-id="15290" width="128" height="128"><path fill="#7DD3FC" d="M518.175 1023.99c-0.445-0.203-45.043-20.539-99.31-48.11-31.776-16.145-60.511-31.533-85.406-45.737-31.118-17.755-56.288-33.7-74.812-47.392s-40.356-33.717-64.884-59.532c-19.623-20.649-41.006-45.021-63.557-72.445-38.37-46.65-67.243-86.549-67.53-86.947V75.911c2.154-0.052 219.716-5.358 264.824-8.828 23.712-1.825 71.895-19.97 108.137-34.87C475.026 16.027 509.014 0.159 509.347 0c1.323 0.464 135.034 47.357 196.323 67.09 24.566 7.908 72.287 11.918 141.836 11.918 59.247 0 113.27-3.06 113.809-3.09v587.909c-0.17 0.332-4.191 8.209-11.589 20.805-6.948 11.833-18.382 30.388-33.439 51.598a675.536 675.536 0 0 1-53.296 66.162 497.24 497.24 0 0 1-71.18 64.496c-24.162 17.721-53.583 37-87.445 57.315-27.09 16.252-57.067 33.194-89.097 50.363-54.457 29.184-96.674 49.224-97.094 49.422z m9.588-546.755v440.666c0.169-0.057 20.652-6.99 50.42-19.29a1032.217 1032.217 0 0 0 111.098-53.625c46.974-26.582 84.497-54.035 111.528-81.597 33.79-34.455 51.188-69.178 51.71-103.207 2.267-147.306 0.022-182.606 0-182.944zM499.107 79.27c-0.2 0.132-20.366 13.908-54.25 28.347a439.734 439.734 0 0 1-61.506 20.977 415.348 415.348 0 0 1-78.82 12.666c-59.28 3.647-97.45 9.694-119.03 14.124-23.389 4.8-32.871 8.788-32.964 8.827V467.15h346.57z" p-id="15291"></path></svg>